<mxfile host="app.diagrams.net" modified="2023-05-08T07:54:48.735Z" agent="Mozilla/5.0 (Windows NT 10.0; Win64; x64) AppleWebKit/537.36 (KHTML, like Gecko) Chrome/113.0.0.0 Safari/537.36 Edg/113.0.1774.35" etag="jH21Ds-l9mUoVT3QDBJZ" version="21.2.9" type="github">
  <diagram name="Page-1" id="BGKccGhWEu-RSh6Evp2C">
    <mxGraphModel dx="2064" dy="670" grid="1" gridSize="10" guides="1" tooltips="1" connect="1" arrows="1" fold="1" page="1" pageScale="1" pageWidth="850" pageHeight="1100" math="0" shadow="0">
      <root>
        <mxCell id="0" />
        <mxCell id="1" parent="0" />
        <mxCell id="3KkCCoeKIosBSJ4c9KA1-1" value="" style="whiteSpace=wrap;html=1;aspect=fixed;" vertex="1" parent="1">
          <mxGeometry x="-10" y="40" width="820" height="820" as="geometry" />
        </mxCell>
        <mxCell id="3KkCCoeKIosBSJ4c9KA1-6" value="" style="edgeStyle=orthogonalEdgeStyle;rounded=0;orthogonalLoop=1;jettySize=auto;html=1;" edge="1" parent="1" source="3KkCCoeKIosBSJ4c9KA1-2" target="3KkCCoeKIosBSJ4c9KA1-5">
          <mxGeometry relative="1" as="geometry">
            <Array as="points">
              <mxPoint x="150" y="150" />
              <mxPoint x="160" y="150" />
            </Array>
          </mxGeometry>
        </mxCell>
        <mxCell id="3KkCCoeKIosBSJ4c9KA1-2" value="&lt;b&gt;&lt;u&gt;&lt;font style=&quot;font-size: 19px;&quot;&gt;smartup e-Receipt Api&lt;/font&gt;&lt;/u&gt;&lt;/b&gt;" style="rounded=1;whiteSpace=wrap;html=1;align=center;" vertex="1" parent="1">
          <mxGeometry x="20" y="90" width="740" height="40" as="geometry" />
        </mxCell>
        <mxCell id="3KkCCoeKIosBSJ4c9KA1-8" value="" style="edgeStyle=orthogonalEdgeStyle;rounded=0;orthogonalLoop=1;jettySize=auto;html=1;" edge="1" parent="1" source="3KkCCoeKIosBSJ4c9KA1-5" target="3KkCCoeKIosBSJ4c9KA1-7">
          <mxGeometry relative="1" as="geometry" />
        </mxCell>
        <mxCell id="3KkCCoeKIosBSJ4c9KA1-5" value="&lt;b&gt;Receive Post request (Sales Receipt ) with receipt number&amp;nbsp;&amp;nbsp;&lt;/b&gt;" style="shape=parallelogram;perimeter=parallelogramPerimeter;whiteSpace=wrap;html=1;fixedSize=1;rounded=1;" vertex="1" parent="1">
          <mxGeometry x="20" y="160" width="280" height="60" as="geometry" />
        </mxCell>
        <mxCell id="3KkCCoeKIosBSJ4c9KA1-10" value="" style="edgeStyle=orthogonalEdgeStyle;rounded=0;orthogonalLoop=1;jettySize=auto;html=1;" edge="1" parent="1" source="3KkCCoeKIosBSJ4c9KA1-7" target="3KkCCoeKIosBSJ4c9KA1-9">
          <mxGeometry relative="1" as="geometry" />
        </mxCell>
        <mxCell id="3KkCCoeKIosBSJ4c9KA1-7" value="&lt;b&gt;Api generate QR Code ,Adding Receipt no. to Queue ,Then Return QR&amp;nbsp;&lt;/b&gt;" style="shape=hexagon;perimeter=hexagonPerimeter2;whiteSpace=wrap;html=1;fixedSize=1;rounded=1;" vertex="1" parent="1">
          <mxGeometry x="50" y="250" width="240" height="80" as="geometry" />
        </mxCell>
        <mxCell id="3KkCCoeKIosBSJ4c9KA1-9" value="&lt;b&gt;End&amp;nbsp;&lt;/b&gt;" style="whiteSpace=wrap;html=1;rounded=1;" vertex="1" parent="1">
          <mxGeometry x="60" y="380" width="120" height="60" as="geometry" />
        </mxCell>
        <mxCell id="3KkCCoeKIosBSJ4c9KA1-12" value="" style="shape=cylinder3;whiteSpace=wrap;html=1;boundedLbl=1;backgroundOutline=1;size=15;strokeColor=#FF0000;dashed=1;dashPattern=12 12;strokeWidth=1;perimeterSpacing=1;shadow=1;sketch=1;curveFitting=1;jiggle=2;" vertex="1" parent="1">
          <mxGeometry x="580" y="110" width="160" height="470" as="geometry" />
        </mxCell>
        <mxCell id="3KkCCoeKIosBSJ4c9KA1-13" value="Hangfire&amp;nbsp;&lt;br&gt;Background Server&lt;br&gt;" style="rounded=1;whiteSpace=wrap;html=1;" vertex="1" parent="1">
          <mxGeometry x="570" y="120" width="120" height="50" as="geometry" />
        </mxCell>
        <mxCell id="3KkCCoeKIosBSJ4c9KA1-14" value="&lt;ul style=&quot;font-size: 12px;&quot;&gt;&lt;li style=&quot;font-size: 12px;&quot;&gt;Background&amp;nbsp; service Checking Receipt Queue and trying issue an e-Receipt.&lt;/li&gt;&lt;li style=&quot;font-size: 12px;&quot;&gt;trying process every 2 minutes.&amp;nbsp;&lt;/li&gt;&lt;/ul&gt;" style="whiteSpace=wrap;html=1;aspect=fixed;align=left;movable=1;resizable=1;rotatable=1;deletable=1;editable=1;locked=0;connectable=1;spacing=0;fontSize=12;fontFamily=Verdana;dashed=1;dashPattern=12 12;perimeterSpacing=3;strokeWidth=1;strokeColor=#0000FF;" vertex="1" parent="1">
          <mxGeometry x="600" y="225" width="160" height="160" as="geometry" />
        </mxCell>
        <mxCell id="3KkCCoeKIosBSJ4c9KA1-15" value="" style="edgeStyle=orthogonalEdgeStyle;rounded=0;orthogonalLoop=1;jettySize=auto;html=1;" edge="1" parent="1" target="3KkCCoeKIosBSJ4c9KA1-16" source="3KkCCoeKIosBSJ4c9KA1-2">
          <mxGeometry relative="1" as="geometry">
            <mxPoint x="660" y="170" as="sourcePoint" />
          </mxGeometry>
        </mxCell>
        <mxCell id="3KkCCoeKIosBSJ4c9KA1-19" value="" style="edgeStyle=orthogonalEdgeStyle;rounded=0;orthogonalLoop=1;jettySize=auto;html=1;" edge="1" parent="1" source="3KkCCoeKIosBSJ4c9KA1-16" target="3KkCCoeKIosBSJ4c9KA1-17">
          <mxGeometry relative="1" as="geometry" />
        </mxCell>
        <mxCell id="3KkCCoeKIosBSJ4c9KA1-16" value="&lt;b&gt;Receive Post request&lt;/b&gt;&lt;b style=&quot;border-color: var(--border-color);&quot;&gt;&amp;nbsp;(Return Receipt )&amp;nbsp;&lt;/b&gt;&lt;b&gt;&lt;br&gt;&amp;nbsp;with receipt number&amp;nbsp;&amp;nbsp;&lt;/b&gt;" style="shape=parallelogram;perimeter=parallelogramPerimeter;whiteSpace=wrap;html=1;fixedSize=1;rounded=1;" vertex="1" parent="1">
          <mxGeometry x="290" y="200" width="280" height="60" as="geometry" />
        </mxCell>
        <mxCell id="3KkCCoeKIosBSJ4c9KA1-20" value="" style="edgeStyle=orthogonalEdgeStyle;rounded=0;orthogonalLoop=1;jettySize=auto;html=1;" edge="1" parent="1" source="3KkCCoeKIosBSJ4c9KA1-17" target="3KkCCoeKIosBSJ4c9KA1-18">
          <mxGeometry relative="1" as="geometry" />
        </mxCell>
        <mxCell id="3KkCCoeKIosBSJ4c9KA1-17" value="&lt;b&gt;Api generate QR Code ,Adding Receipt no. to Queue ,Then Return QR&amp;nbsp;&lt;/b&gt;" style="shape=hexagon;perimeter=hexagonPerimeter2;whiteSpace=wrap;html=1;fixedSize=1;rounded=1;" vertex="1" parent="1">
          <mxGeometry x="320" y="290" width="240" height="80" as="geometry" />
        </mxCell>
        <mxCell id="3KkCCoeKIosBSJ4c9KA1-18" value="&lt;b&gt;End&amp;nbsp;&lt;/b&gt;" style="whiteSpace=wrap;html=1;rounded=1;" vertex="1" parent="1">
          <mxGeometry x="380" y="420" width="120" height="60" as="geometry" />
        </mxCell>
      </root>
    </mxGraphModel>
  </diagram>
</mxfile>
